<?xml version="1.0" standalone="no"?>
<!DOCTYPE svg PUBLIC "-//W3C//DTD SVG 20010904//EN"
 "http://www.w3.org/TR/2001/REC-SVG-20010904/DTD/svg10.dtd">
<svg version="1.0" xmlns="http://www.w3.org/2000/svg"
 width="512.000000pt" height="512.000000pt" viewBox="0 0 512.000000 512.000000"
 preserveAspectRatio="xMidYMid meet">

<g transform="translate(0.000000,512.000000) scale(0.100000,-0.100000)"
fill="#000000" stroke="none">
<path d="M1309 4836 c-20 -7 -49 -22 -65 -34 -57 -41 -1202 -1198 -1220 -1232
-13 -25 -19 -57 -19 -110 0 -64 4 -82 27 -120 14 -25 181 -199 370 -386 369
-367 370 -368 473 -368 86 0 121 19 227 122 l98 95 0 -1160 c0 -1292 -4 -1216
69 -1291 20 -21 55 -47 76 -57 39 -20 68 -20 1215 -20 1147 0 1176 0 1215 20
21 10 56 36 76 57 73 76 69 -1 69 1292 l0 1160 94 -92 c51 -51 111 -99 132
-108 57 -25 150 -23 204 4 32 15 148 125 391 369 307 309 348 354 363 397 20
63 20 109 0 172 -15 44 -73 105 -613 647 -335 336 -616 610 -641 625 l-45 27
-243 3 c-292 4 -320 -2 -392 -81 -123 -136 -158 -165 -241 -205 -112 -54 -191
-72 -329 -79 -243 -11 -466 68 -581 209 -129 155 -137 158 -443 158 -163 -1
-242 -5 -267 -14z"/>
</g>
</svg>
